name Run_400 02_newCOP3_v24.mot
datacolumns 19
datarows 53
range 0.04 0.092
DataType=double
version=3
OpenSimVersion=4.3-2021-08-27-4bc7ad9
endheader
time	R_ground_force_vx	R_ground_force_vy	R_ground_force_vz	R_ground_force_px	R_ground_force_py	R_ground_force_pz	L_ground_force_vx	L_ground_force_vy	L_ground_force_vz	L_ground_force_px	L_ground_force_py	L_ground_force_pz	R_ground_torque_x	R_ground_torque_y	R_ground_torque_z	L_ground_torque_x	L_ground_torque_y	L_ground_torque_z
0.04	0	0	0	0	0	0	226.828583	616.395935	1.257928	0.459873	0	-0.396007	0	0	0	0	-6.017621	0
0.041	0	0	0	0	0	0	220.7453	596.2100830000001	0.241085	0.459197	0	-0.396066	0	0	0	0	-5.38419	0
0.042	0	0	0	0	0	0	214.465454	575.443726	-0.7913750000000001	0.458451	0	-0.396141	0	0	0	0	-4.761693	0
0.043	0	0	0	0	0	0	208.021881	554.231934	-1.828673	0.457629	0	-0.396235	0	0	0	0	-4.151277	0
0.044	0	0	0	0	0	0	201.443237	532.69519	-2.860148	0.456724	0	-0.396354	0	0	0	0	-3.554049	0
0.045	0	0	0	0	0	0	194.755844	510.944824	-3.875345	0.455732	0	-0.396503	0	0	0	0	-2.971069	0
0.046	0	0	0	0	0	0	187.984726	489.085114	-4.864116	0.454645	0	-0.396688	0	0	0	0	-2.403347	0
0.047	0	0	0	0	0	0	181.154114	467.214661	-5.816719	0.453459	0	-0.396911	0	0	0	0	-1.851839	0
0.048	0	0	0	0	0	0	174.287643	445.42691	-6.723924	0.452169	0	-0.397178	0	0	0	0	-1.317441	0
0.049	0	0	0	0	0	0	167.408447	423.810059	-7.577115	0.450773	0	-0.39749	0	0	0	0	-0.800984	0
0.05	0	0	0	0	0	0	160.539001	402.44693	-8.368385	0.449269	0	-0.397848	0	0	0	0	-0.303237	0
0.051	0	0	0	0	0	0	153.700989	381.414551	-9.090630000000001	0.44766	0	-0.398252	0	0	0	-0	0.175102	-0
0.052	0	0	0	0	0	0	146.915039	360.784149	-9.737625	0.445951	0	-0.3987	0	0	0	-0	0.6334070000000001	-0
0.053	0	0	0	0	0	0	140.200577	340.620575	-10.304104	0.444152	0	-0.399187	0	0	0	-0	1.071126	-0
0.054	0	0	0	0	0	0	133.575577	320.982269	-10.785814	0.442277	0	-0.399706	0	0	0	-0	1.487781	-0
0.055	0	0	0	0	0	0	127.056404	301.921021	-11.179573	0.440346	0	-0.400247	0	0	0	-0	1.882974	-0
0.056	0	0	0	0	0	0	120.657608	283.481873	-11.483294	0.438386	0	-0.400798	0	0	0	-0	2.256381	-0
0.057	0	0	0	0	0	0	114.391907	265.703125	-11.696009	0.436431	0	-0.401344	0	0	0	-0	2.60776	-0
0.058	0	0	0	0	0	0	108.270096	248.61618	-11.817877	0.434522	0	-0.401866	0	0	0	-0	2.936944	-0
0.059	0	0	0	0	0	0	102.301064	232.245789	-11.850169	0.432712	0	-0.402343	0	0	0	-0	3.243845	-0
0.06	0	0	0	0	0	0	96.491882	216.610062	-11.795242	0.431059	0	-0.40275	0	0	0	-0	3.528451	-0
0.061	0	0	0	0	0	0	90.8479	201.720657	-11.656495	0.429631	0	-0.403061	0	0	0	-0	3.790827	-0
0.062	0	0	0	0	0	0	85.372925	187.583008	-11.438313	0.428506	0	-0.403246	0	0	0	-0	4.031108	-0
0.063	0	0	0	0	0	0	80.069397	174.196579	-11.145993	0.427769	0	-0.403272	0	0	0	-0	4.249503	-0
0.064	0	0	0	0	0	0	74.938637	161.555283	-10.785659	0.427511	0	-0.403107	0	0	0	-0	4.446288	-0
0.065	0	0	0	0	0	0	69.981071	149.647751	-10.364162	0.42783	0	-0.402717	0	0	0	-0	4.621805	-0
0.066	0	0	0	0	0	0	65.196465	138.457916	-9.888973	0.428825	0	-0.402068	0	0	0	-0	4.776457	-0
0.067	0	0	0	0	0	0	60.58416	127.965462	-9.368061000000001	0.430595	0	-0.401127	0	0	0	-0	4.910707	-0
0.068	0	0	0	0	0	0	56.143299	118.146431	-8.809771	0.433238	0	-0.399861	0	0	0	-0	5.025073	-0
0.06900000000000001	0	0	0	0	0	0	51.873005	108.973808	-8.222688	0.436845	0	-0.398245	0	0	0	-0	5.120119	-0
0.07000000000000001	0	0	0	0	0	0	47.772526	100.418205	-7.615507	0.441496	0	-0.396252	0	0	0	-0	5.196461	-0
0.07099999999999999	0	0	0	0	0	0	43.841351	92.448509	-6.996898	0.447263	0	-0.393864	0	0	0	-0	5.254753	-0
0.07199999999999999	0	0	0	0	0	0	40.079269	85.03257000000001	-6.375369	0.454199	0	-0.391066	0	0	0	-0	5.295686	-0
0.073	0	0	0	0	0	0	36.486404	78.137794	-5.759135	0.462343	0	-0.38785	0	0	0	-0	5.319985	-0
0.074	0	0	0	0	0	0	33.063187	71.73178900000001	-5.156001	0.471712	0	-0.384215	0	0	0	-0	5.328403	-0
0.075	0	0	0	0	0	0	29.810293	65.78284499999999	-4.573238	0.482305	0	-0.380165	0	0	0	-0	5.321714	-0
0.076	0	0	0	0	0	0	26.728586	60.260384	-4.017482	0.4941	0	-0.375712	0	0	0	-0	5.300713	-0
0.077	0	0	0	0	0	0	23.818991	55.135277	-3.494642	0.507054	0	-0.370872	0	0	0	-0	5.266204	-0
0.078	0	0	0	0	0	0	21.082386	50.380077	-3.009815	0.521099	0	-0.365668	0	0	0	-0	5.219007	-0
0.079	0	0	0	0	0	0	18.519485	45.969135	-2.567227	0.536149	0	-0.360131	0	0	0	-0	5.159943	-0
0.08	0	0	0	0	0	0	16.130709	41.878605	-2.170185	0.552087	0	-0.354294	0	0	0	-0	5.089833	-0
0.081	0	0	0	0	0	0	13.91607	38.086422	-1.821046	0.568771	0	-0.348199	0	0	0	-0	5.009499	-0
0.082	0	0	0	0	0	0	11.875064	34.572151	-1.521206	0.586029	0	-0.341893	0	0	0	-0	4.919752	-0
0.083	0	0	0	0	0	0	10.006567	31.316881	-1.271104	0.603648	0	-0.335428	0	0	0	-0	4.821396	-0
0.08400000000000001	0	0	0	0	0	0	8.308752	28.303043	-1.070249	0.621373	0	-0.328864	0	0	0	-0	4.715219	-0
0.08500000000000001	0	0	0	0	0	0	6.779006	25.514296	-0.917258	0.638899	0	-0.322267	0	0	0	-0	4.601996	-0
0.08599999999999999	0	0	0	0	0	0	5.413866	22.935413	-0.809914	0.655859	0	-0.315709	0	0	0	-0	4.482479	-0
0.08699999999999999	0	0	0	0	0	0	4.208965	20.552229	-0.745238	0.6718150000000001	0	-0.309269	0	0	0	-0	4.3574	-0
0.08799999999999999	0	0	0	0	0	0	3.158993	18.351612	-0.719576	0.686246	0	-0.303028	0	0	0	-0	4.227468	-0
0.089	0	0	0	0	0	0	2.25767	16.321495	-0.728689	0.698531	0	-0.297075	0	0	0	-0	4.093367	-0
0.09	0	0	0	0	0	0	1.497737	14.450915	-0.767864	0.707929	0	-0.291497	0	0	0	-0	3.955751	-0
0.091	0	0	0	0	0	0	0.870967	12.730078	-0.832021	0.713553	0	-0.286385	0	0	0	-0	3.815248	-0
0.092	0	0	0	0	0	0	0.368204	11.150408	-0.915832	0.714327	0	-0.281823	0	0	0	-0	3.672457	-0
